<svg width="28" height="28" viewBox="0 0 28 28" fill="none" xmlns="http://www.w3.org/2000/svg">
<path d="M27.6321 10.4323C27.4848 11.3968 27.3375 11.6936 27.2639 11.9161C27.2639 11.9161 27.1902 6.72272 25.4967 5.01631C25.7176 6.64853 25.5703 7.01949 25.5703 7.01949C23.2876 2.93894 18.8695 0.193848 13.936 0.193848C9.88613 0.193848 6.20441 2.12283 3.70084 5.0905C3.18539 4.57116 3.03812 2.93894 3.03812 2.86475C3.03812 2.86475 1.41817 4.42278 1.56543 8.13236C1.56543 8.13236 -0.201794 9.91296 0.0191093 11.9903C0.0191093 11.9903 0.313647 11.6936 0.755454 11.6194C0.534551 12.2871 0.313647 12.9548 0.240013 13.6967C0.0191093 15.9225 0.460916 18.2224 1.63907 20.374C1.63907 20.374 2.15451 21.2643 2.37541 21.6353C2.44905 21.7095 2.44905 21.7836 2.52268 21.7836C5.02626 25.1965 9.00252 27.4222 13.5679 27.4222C20.6368 27.5706 27.6321 22.5998 27.6321 10.4323ZM23.8031 9.83877C23.5085 9.39362 23.1403 9.09686 22.6985 8.94847C23.2876 11.2484 23.3613 13.1774 22.8458 14.6612C22.5513 13.6226 22.1831 13.029 21.9622 12.8806C22.3304 15.9967 21.8149 18.2966 20.4159 19.7805C20.7104 18.8902 20.784 18.1482 20.7104 17.5547C19.0905 20.003 17.2496 21.2643 15.1878 21.3385C11.8006 21.3385 10.0334 19.1127 10.0334 19.1127C12.7579 19.4095 14.0097 18.2224 15.4087 17.2579C15.7033 17.1096 15.8505 17.2579 16.0714 17.2579C16.5132 17.3321 16.7341 16.9612 16.5132 16.5902C16.366 16.2935 15.9978 16.0709 15.556 15.7741C14.6724 15.329 13.7151 15.4032 12.7579 15.9967C11.8743 16.516 10.9907 16.4418 10.107 15.9225C8.78162 15.1806 6.20441 11.7678 11.0643 13.3258C11.2116 12.5839 10.9907 11.6936 10.6225 11.1C11.2852 10.4323 12.537 9.69039 12.7579 9.46782C12.9051 9.31943 12.9052 9.17105 12.9052 9.09686C12.9052 9.09686 13.1997 8.80009 12.8315 8.50332C12.3161 8.50332 11.3588 8.42913 11.3588 8.42913C8.48708 7.24206 11.5797 3.90343 11.5797 3.90343C11.5797 3.90343 8.70798 4.71954 7.82437 5.75823C6.13077 5.23889 4.58445 5.9808 4.58445 5.9808C4.36355 5.83242 4.14264 5.60984 3.92174 5.38727C6.27804 2.4196 9.88613 0.564806 13.936 0.564806C17.0287 0.564806 19.9004 1.67768 22.1831 3.53248C21.8149 3.38409 19.8268 1.97445 16.955 2.49379C19.3114 3.01313 19.9004 3.75505 20.1213 4.2002C19.4586 4.05182 18.8695 4.12601 18.2805 4.34858C20.784 4.34858 24.024 7.76141 23.8031 9.83877Z" fill="#FCFEFF"/>
</svg>
