<svg width="31" height="32" viewBox="0 0 31 32" fill="none" xmlns="http://www.w3.org/2000/svg">
<path d="M27.1209 16.1912L28.8447 13.2713C28.9139 13.1256 28.9235 12.9585 28.871 12.8081L25.4568 3.02891C25.3518 2.73047 25.039 2.56096 24.7358 2.63497L14.7012 5.07977C14.5102 5.12752 14.3526 5.2636 14.2786 5.44744L13.2114 8.11905H9.95723C9.78772 8.11905 9.62298 8.19067 9.50838 8.31482L2.17399 16.2604C1.94718 16.5063 1.95912 16.8883 2.20026 17.1175L9.89277 24.4519C10.005 24.5617 10.1578 24.6214 10.313 24.6214H13.8202L14.8898 27.293C14.9686 27.4912 15.1453 27.632 15.353 27.6679L26.0251 29.5014C26.0585 29.5086 26.0943 29.511 26.1277 29.511C26.4118 29.511 26.6625 29.3152 26.7246 29.0311L28.8901 19.1111C28.9235 18.9583 28.8972 18.7983 28.8137 18.6622L27.1209 16.1912ZM13.2114 8.11905L21.8255 6.54091L17.2916 15.4534H7.0039L13.2114 8.11905ZM13.8226 24.6214L7.0039 17.8982H17.2916L22.6396 25.9465L13.8226 24.6214ZM24.8624 24.5593L19.7364 16.6758L24.2177 7.76331L27.1209 16.1936L24.8624 24.5593Z" fill="#FCFEFF"/>
</svg>
