<svg width="22" height="28" viewBox="0 0 22 28" fill="none" xmlns="http://www.w3.org/2000/svg">
<path d="M15.0414 4.26972C16.068 3.19286 16.7586 1.69262 16.5719 0.192383C15.0974 0.247606 13.3055 1.04835 12.2509 2.12521C11.299 3.08242 10.4683 4.61027 10.6923 6.0829C12.3349 6.19334 14.0241 5.34658 15.0414 4.26972ZM18.1865 14.6057C18.1585 11.2463 20.8836 9.63561 21.0049 9.56198C19.4744 7.27941 17.0852 6.97568 16.2359 6.93886C14.2014 6.72717 12.2789 8.15378 11.243 8.15378C10.2164 8.15378 8.62981 6.96647 6.9406 7.00329C4.72875 7.0309 2.68489 8.30104 1.54631 10.3167C-0.758863 14.3756 0.95835 20.3766 3.19819 23.6716C4.29012 25.2823 5.59669 27.0863 7.3139 27.0218C8.96579 26.9574 9.59108 25.9358 11.5883 25.9358C13.5855 25.9358 14.1454 27.0218 15.8906 26.985C17.6638 26.9482 18.7931 25.3467 19.8757 23.7268C21.1356 21.8584 21.6489 20.0545 21.6769 19.9624C21.6489 19.944 18.2238 18.6186 18.1865 14.6057Z" fill="#FCFEFF"/>
</svg>
