<svg width="29" height="24" viewBox="0 0 29 24" fill="none" xmlns="http://www.w3.org/2000/svg">
<path d="M9.99464 20.9648L7.14325 23.8162H21.3998L18.5484 20.9648H9.99464Z" fill="#FCFEFF"/>
<path d="M4.01507 0.797852C1.80593 0.797852 0.0150757 2.58871 0.0150757 4.79785V15.3311C0.0150757 17.5402 1.80594 19.3311 4.01508 19.3311H24.5277C26.7369 19.3311 28.5277 17.5402 28.5277 15.3311V4.79785C28.5277 2.58871 26.7369 0.797852 24.5277 0.797852H4.01507ZM14.0832 6.17677C14.0975 6.06682 14.1202 5.95568 14.1545 5.85012C14.223 5.63063 14.3126 5.4195 14.4298 5.22152C14.6791 4.79091 15.0113 4.44315 15.4404 4.1894C15.6256 4.07946 15.824 3.98106 16.0247 3.90299C16.2 3.83885 16.3868 3.80738 16.5681 3.76914C16.6549 3.75042 16.6681 3.76914 16.6709 3.85757C16.6737 3.93326 16.6709 4.00855 16.6709 4.06432C16.688 4.33958 16.641 4.58337 16.5681 4.82278C16.4669 5.14783 16.3088 5.44858 16.1092 5.72504C15.914 5.99313 15.6774 6.217 15.4005 6.39785C15.2037 6.52492 15.0014 6.6273 14.7775 6.69741C14.5724 6.76314 14.3684 6.79859 14.1529 6.80576C14.0987 6.80735 14.0832 6.78305 14.0772 6.73007C14.0577 6.54484 14.0605 6.3608 14.0832 6.17677ZM19.1697 14.0776C19.0187 14.3457 18.8431 14.6007 18.665 14.8516C18.4881 15.101 18.2985 15.342 18.1005 15.5742C17.8966 15.8065 17.6628 16.006 17.3907 16.1558C17.0871 16.3211 16.7705 16.4024 16.4171 16.347C16.159 16.3056 15.9295 16.1972 15.6929 16.0989C15.5276 16.0291 15.3579 15.965 15.1854 15.9148C14.8747 15.8252 14.5596 15.818 14.2358 15.8451C13.9677 15.8706 13.7095 15.9335 13.4646 16.0403C13.3176 16.1016 13.175 16.1674 13.0268 16.2243C12.7332 16.3371 12.4336 16.4024 12.1102 16.347C11.7365 16.2829 11.4286 16.0989 11.1493 15.8579C10.9071 15.6495 10.7044 15.4101 10.5148 15.1607C10.2296 14.7871 9.97461 14.3939 9.75632 13.9788C9.63084 13.7406 9.52089 13.4929 9.41573 13.2459C9.33447 13.0579 9.26595 12.8682 9.20181 12.6754C9.14605 12.5085 9.10621 12.336 9.05921 12.1652C9.02933 12.0468 8.99666 11.9285 8.97356 11.8086C8.94368 11.6433 8.91938 11.4752 8.89947 11.3083C8.87796 11.1314 8.86401 10.9534 8.85684 10.7765C8.85127 10.5885 8.85406 10.3989 8.86242 10.212C8.86959 10.0551 8.88114 9.89854 8.90226 9.74438C8.92377 9.60456 8.95484 9.46634 8.99069 9.3309C9.03769 9.16 9.09187 8.98871 9.15162 8.82181C9.2301 8.59953 9.34681 8.39717 9.48225 8.20437C9.68621 7.91078 9.92283 7.64548 10.2037 7.4232C10.412 7.2535 10.6371 7.10094 10.8864 6.99418C11.0418 6.92726 11.2015 6.85436 11.3653 6.81014C11.6831 6.72609 12.0026 6.67311 12.3316 6.72728C12.4842 6.75278 12.638 6.76991 12.7866 6.80417C12.9136 6.83285 13.0359 6.87826 13.1586 6.91969C13.3012 6.9655 13.4379 7.0137 13.5793 7.0607C13.6992 7.09934 13.8159 7.14635 13.9386 7.17463C14.2023 7.23877 14.4676 7.28856 14.7397 7.2304C14.8906 7.19774 15.0432 7.16348 15.1914 7.12046C15.2882 7.09058 15.3854 7.04915 15.481 7.01489C15.5894 6.97506 15.6993 6.93204 15.8116 6.89658C15.9471 6.85237 16.0809 6.80536 16.2223 6.77987C16.5119 6.72569 16.8055 6.68307 17.1047 6.72011C17.2174 6.73445 17.3369 6.74561 17.448 6.7715C17.568 6.79859 17.6902 6.82727 17.8046 6.87547C17.9998 6.95833 18.191 7.04636 18.375 7.15352C18.7116 7.3515 19.0096 7.60126 19.2562 7.90759C19.2777 7.93189 19.296 7.95619 19.3259 7.98607C19.286 8.01156 19.2502 8.03467 19.2191 8.05578C18.7602 8.32666 18.4121 8.69712 18.1742 9.17474C18.0774 9.37153 18.0117 9.57827 17.9591 9.79338C17.8966 10.0559 17.8922 10.3208 17.9022 10.5889C17.9077 10.71 17.932 10.8311 17.9591 10.951C17.9978 11.1135 18.0376 11.2788 18.099 11.4342C18.1603 11.5911 18.2428 11.7449 18.33 11.8891C18.4527 12.0915 18.6009 12.2767 18.7761 12.438C19.0215 12.6603 19.2924 12.8372 19.596 12.9682C19.6115 12.9754 19.6274 12.9754 19.643 12.981C19.6784 12.9981 19.6955 13.0236 19.6744 13.0638C19.5119 13.4048 19.3494 13.7486 19.1697 14.0776Z" fill="#FCFEFF"/>
</svg>
