<svg width="17" height="28" viewBox="0 0 17 28" fill="none" xmlns="http://www.w3.org/2000/svg">
<path d="M0.0560077 18.5748C0.0560077 23.2461 3.83365 27.0248 8.50716 27.0248C13.1807 27.0248 16.9583 23.2461 16.9583 18.5748V13.7451H0.0560077V18.5748ZM13.481 4.53256L16.0179 1.99573L15.0266 0.994629L12.249 3.7842C11.1145 3.21478 9.85959 2.87857 8.50711 2.87857C7.15463 2.87857 5.89974 3.21478 4.7772 3.7842L1.98763 0.994629L0.996291 1.99568L3.53312 4.53251C1.43228 6.06829 0.0559082 8.52706 0.0559082 11.3307V12.5368H16.9582V11.3307C16.9583 8.52711 15.5819 6.06834 13.481 4.53256ZM4.88566 10.1226C4.22191 10.1226 3.6785 9.57916 3.6785 8.91651C3.6785 8.25057 4.22191 7.70826 4.88566 7.70826C5.54941 7.70826 6.09281 8.25057 6.09281 8.91651C6.09281 9.57916 5.54836 10.1226 4.88566 10.1226ZM12.1286 10.1226C11.4648 10.1226 10.9214 9.57916 10.9214 8.91651C10.9214 8.25057 11.4648 7.70826 12.1286 7.70826C12.7923 7.70826 13.3357 8.25057 13.3357 8.91651C13.3368 9.57916 12.7924 10.1226 12.1286 10.1226Z" fill="#FCFEFF"/>
</svg>
