<svg width="60" height="67" viewBox="0 0 60 67" fill="none" xmlns="http://www.w3.org/2000/svg">
<path d="M4.80931 51.1508H7.01931C8.03331 51.1508 8.80464 51.3414 9.33331 51.7228C9.87064 52.0954 10.1393 52.7108 10.1393 53.5688C10.1393 54.4008 9.87064 55.0291 9.33331 55.4538C8.79597 55.8784 8.04197 56.0908 7.07131 56.0908H5.49831V59.7178H4.80931V51.1508ZM6.91531 55.5188C7.77331 55.5188 8.40597 55.3671 8.81331 55.0638C9.22931 54.7518 9.43731 54.2534 9.43731 53.5688C9.43731 52.8928 9.22931 52.4204 8.81331 52.1518C8.40597 51.8744 7.75597 51.7358 6.86331 51.7358H5.49831V55.5188H6.91531ZM18.0012 59.7178L15.7392 55.8438H13.9712V59.7178H13.2822V51.1508H15.7652C16.6665 51.1508 17.3685 51.3371 17.8712 51.7098C18.3738 52.0738 18.6252 52.6501 18.6252 53.4388C18.6252 54.1061 18.4345 54.6391 18.0532 55.0378C17.6805 55.4364 17.1562 55.6878 16.4802 55.7918L18.8072 59.7178H18.0012ZM15.6092 55.2718C16.3632 55.2718 16.9352 55.1201 17.3252 54.8168C17.7238 54.5134 17.9232 54.0541 17.9232 53.4388C17.9232 52.8321 17.7282 52.3988 17.3382 52.1388C16.9568 51.8701 16.3805 51.7358 15.6092 51.7358H13.9712V55.2718H15.6092ZM21.7042 51.1508H22.3932V59.7178H21.7042V51.1508ZM24.9948 51.1508H25.7228L27.2698 56.0908L27.6208 57.2218C27.9068 58.1491 28.0844 58.7254 28.1538 58.9508H28.2058C28.4138 58.3354 28.6131 57.7028 28.8038 57.0528L29.1028 56.0908L30.6368 51.1508H31.3388L28.5568 59.7178H27.7898L24.9948 51.1508ZM37.6356 56.8448H34.3076L33.3326 59.7178H32.6306L35.6206 51.1508H36.3356L39.3386 59.7178H38.5976L37.6356 56.8448ZM37.4536 56.2728L36.9336 54.7258C36.5436 53.5731 36.2316 52.5938 35.9976 51.7878H35.9456C35.729 52.5678 35.4213 53.5471 35.0226 54.7258L34.5026 56.2728H37.4536ZM44.9095 59.8738C44.2075 59.8738 43.5835 59.6918 43.0375 59.3278C42.4915 58.9638 42.0625 58.4481 41.7505 57.7808C41.4472 57.1048 41.2955 56.3204 41.2955 55.4278C41.2955 54.5351 41.4515 53.7551 41.7635 53.0878C42.0755 52.4204 42.5089 51.9091 43.0635 51.5538C43.6182 51.1898 44.2595 51.0078 44.9875 51.0078C45.4555 51.0078 45.8802 51.1074 46.2615 51.3068C46.6515 51.4974 46.9765 51.7401 47.2365 52.0348L46.8335 52.4898C46.3222 51.9091 45.7069 51.6188 44.9875 51.6188C44.3895 51.6188 43.8652 51.7748 43.4145 52.0868C42.9725 52.3901 42.6302 52.8278 42.3875 53.3998C42.1449 53.9718 42.0235 54.6434 42.0235 55.4148C42.0235 56.1861 42.1405 56.8621 42.3745 57.4428C42.6172 58.0234 42.9552 58.4698 43.3885 58.7818C43.8305 59.0938 44.3505 59.2498 44.9485 59.2498C45.3732 59.2498 45.7545 59.1674 46.0925 59.0028C46.4392 58.8294 46.7642 58.5651 47.0675 58.2098L47.4705 58.6518C47.1239 59.0504 46.7425 59.3538 46.3265 59.5618C45.9192 59.7698 45.4469 59.8738 44.9095 59.8738ZM51.8187 56.2728L49.2447 51.1508H49.9727L51.2467 53.7898C51.5327 54.4138 51.8274 55.0291 52.1307 55.6358H52.1827C52.2001 55.5924 52.2217 55.5448 52.2477 55.4928C52.2824 55.4408 52.3171 55.3801 52.3517 55.3108C52.4124 55.1894 52.5251 54.9728 52.6897 54.6608C52.8544 54.3488 52.9931 54.0584 53.1057 53.7898L54.3667 51.1508H55.0687L52.5077 56.2728V59.7178H51.8187V56.2728Z" fill="#2A323D"/>
<g clip-path="url(#clip0_1096_9791)">
<path d="M20.9381 10.8745C19.1806 10.8745 17.7508 12.2612 17.7508 13.9654C17.7508 15.6697 19.1807 17.0564 20.9381 17.0564C22.6956 17.0564 24.1255 15.6697 24.1255 13.9654C24.1254 12.2612 22.6956 10.8745 20.9381 10.8745ZM20.9381 15.8846C19.8469 15.8846 18.9592 15.0237 18.9592 13.9655C18.9592 12.9074 19.847 12.0465 20.9381 12.0465C22.0292 12.0465 22.9171 12.9074 22.9171 13.9655C22.9171 15.0237 22.0292 15.8846 20.9381 15.8846Z" fill="#2A323D"/>
<path d="M34.4995 25.2783C32.7421 25.2783 31.3122 26.6649 31.3122 28.3693C31.3122 30.0736 32.7421 31.4602 34.4995 31.4602C36.257 31.4602 37.6868 30.0736 37.6868 28.3693C37.6868 26.665 36.257 25.2783 34.4995 25.2783ZM34.4996 30.2882C33.4085 30.2882 32.5207 29.4272 32.5207 28.3691C32.5207 27.311 33.4084 26.45 34.4996 26.45C35.5908 26.45 36.4785 27.311 36.4785 28.3691C36.4785 29.4272 35.5907 30.2882 34.4996 30.2882Z" fill="#2A323D"/>
<path d="M22.2296 24.0259C20.8282 24.0259 19.688 25.1316 19.688 26.4906C19.688 27.8497 20.8282 28.9553 22.2296 28.9553C23.631 28.9553 24.7712 27.8497 24.7712 26.4906C24.7712 25.1316 23.631 24.0259 22.2296 24.0259ZM22.2296 27.7835C21.4945 27.7835 20.8965 27.2035 20.8965 26.4906C20.8965 25.7778 21.4945 25.1978 22.2296 25.1978C22.9647 25.1978 23.5628 25.7778 23.5628 26.4906C23.5628 27.2035 22.9647 27.7835 22.2296 27.7835Z" fill="#2A323D"/>
<path d="M29.3333 15.2583C28.288 15.2583 27.4376 16.0831 27.4376 17.0967C27.4376 18.1105 28.288 18.9352 29.3333 18.9352C30.3786 18.9352 31.2291 18.1104 31.2291 17.0967C31.229 16.0831 30.3786 15.2583 29.3333 15.2583ZM29.3333 17.7633C28.9544 17.7633 28.646 17.4642 28.646 17.0967C28.646 16.7292 28.9543 16.4302 29.3333 16.4302C29.7124 16.4302 30.0207 16.7292 30.0207 17.0967C30.0207 17.4642 29.7123 17.7633 29.3333 17.7633Z" fill="#2A323D"/>
<path d="M42.1436 25.6025L41.4978 24.35C41.3486 24.0605 40.9857 23.9431 40.6872 24.0879C40.3888 24.2326 40.2678 24.5846 40.417 24.874L41.0628 26.1266C41.1687 26.332 41.382 26.4507 41.6037 26.4507C41.6945 26.4507 41.7867 26.4307 41.8734 26.3887C42.1719 26.2439 42.2929 25.8921 42.1436 25.6025Z" fill="#2A323D"/>
<path d="M36.3315 21.2186C36.1822 20.9292 35.8195 20.8117 35.5209 20.9566L34.2293 21.5828C33.9309 21.7275 33.8099 22.0795 33.9591 22.3689C34.065 22.5742 34.2783 22.6929 34.5 22.6929C34.5908 22.6929 34.683 22.673 34.7698 22.631L36.0613 22.0047C36.3598 21.86 36.4808 21.5081 36.3315 21.2186Z" fill="#2A323D"/>
<path d="M17.6038 20.5922L16.958 19.3397C16.8088 19.0502 16.4459 18.9328 16.1474 19.0777C15.8489 19.2224 15.7279 19.5743 15.8772 19.8638L16.523 21.1163C16.6288 21.3216 16.8421 21.4403 17.0638 21.4403C17.1546 21.4403 17.2468 21.4203 17.3336 21.3783C17.632 21.2336 17.753 20.8817 17.6038 20.5922Z" fill="#2A323D"/>
<path d="M27.2907 31.2386C27.1415 30.9491 26.7786 30.8318 26.4801 30.9766L25.1885 31.6028C24.89 31.7475 24.769 32.0995 24.9183 32.3889C25.0242 32.5942 25.2375 32.7129 25.4592 32.7129C25.55 32.7129 25.6422 32.693 25.7289 32.6509L27.0205 32.0247C27.319 31.88 27.44 31.528 27.2907 31.2386Z" fill="#2A323D"/>
<path d="M27.1774 7.28867L26.5317 6.66234C26.2958 6.43352 25.9132 6.43352 25.6772 6.66234C25.4413 6.89117 25.4413 7.26211 25.6772 7.49094L26.3231 8.11726C26.441 8.23172 26.5957 8.2889 26.7503 8.2889C26.9049 8.2889 27.0596 8.23172 27.1775 8.11726C27.4134 7.88851 27.4134 7.51758 27.1774 7.28867Z" fill="#2A323D"/>
<path d="M25.8858 21.6924L25.24 21.0662C25.0041 20.8373 24.6216 20.8373 24.3856 21.0662C24.1496 21.295 24.1496 21.666 24.3856 21.8947L25.0314 22.521C25.1493 22.6354 25.304 22.6926 25.4586 22.6926C25.6132 22.6926 25.7679 22.6355 25.8858 22.521C26.1218 22.2922 26.1218 21.9212 25.8858 21.6924Z" fill="#2A323D"/>
<path d="M32.5622 34.0459C32.2285 34.0459 31.958 34.3082 31.958 34.6318V35.2581C31.958 35.5817 32.2285 35.844 32.5622 35.844C32.8959 35.844 33.1664 35.5817 33.1664 35.2581V34.6318C33.1664 34.3082 32.8959 34.0459 32.5622 34.0459Z" fill="#2A323D"/>
<path d="M29.7606 10.4197C29.5246 10.1908 29.142 10.1908 28.9061 10.4197L28.2603 11.0459C28.0244 11.2747 28.0244 11.6458 28.2603 11.8745C28.3783 11.9889 28.533 12.0462 28.6876 12.0462C28.8422 12.0462 28.9968 11.9889 29.1148 11.8745L29.7606 11.2483C29.9965 11.0194 29.9965 10.6484 29.7606 10.4197Z" fill="#2A323D"/>
<path d="M44.0006 3.82291C43.331 3.20299 42.4019 2.98697 41.5153 3.24494L39.4756 3.83838C38.5544 4.10635 37.857 4.87393 37.6989 5.79393L37.5136 6.87197C37.3145 8.03127 37.9935 9.17229 39.1283 9.58494L40.7686 10.1815C41.0567 10.2863 41.359 10.3382 41.6606 10.3382C42.0682 10.3382 42.4745 10.2434 42.8426 10.0559C43.4832 9.72971 43.9512 9.15221 44.1267 8.4715L44.7113 6.20353C44.9358 5.33268 44.6701 4.44275 44.0006 3.82291ZM43.5391 5.91924L42.9544 8.18721C42.861 8.54955 42.6218 8.84471 42.2809 9.0183C41.9399 9.19189 41.5536 9.21533 41.193 9.08424L39.5526 8.48768C38.9574 8.27119 38.6012 7.67275 38.7057 7.06463L38.891 5.98658C38.9739 5.504 39.3397 5.10135 39.8229 4.9608L41.8626 4.36736C41.9918 4.32978 42.1227 4.31143 42.2519 4.31143C42.5879 4.31143 42.9125 4.43572 43.1662 4.67057C43.5174 4.99564 43.6568 5.46244 43.5391 5.91924Z" fill="#2A323D"/>
<path d="M48.1496 14.2433C48.0887 13.7378 47.824 13.2912 47.4041 12.9859L46.5472 12.3626C45.9691 11.942 45.2083 11.8755 44.5618 12.189L43.782 12.5671C42.8854 13.0018 42.4925 14.0422 42.8873 14.9357L43.5148 16.3555C43.7767 16.948 44.3257 17.3574 44.9835 17.4505C45.0769 17.4637 45.1701 17.4702 45.2625 17.4702C45.8205 17.4702 46.3484 17.2331 46.7136 16.8082L47.7231 15.6335C48.059 15.2425 48.2105 14.7488 48.1496 14.2433ZM46.7947 14.8833L45.7852 16.058C45.6286 16.2402 45.3999 16.3251 45.1579 16.2908C44.9158 16.2566 44.7217 16.1118 44.6254 15.8938L43.9979 14.474C43.8547 14.15 43.9973 13.7727 44.3223 13.6152L45.1024 13.2371C45.2004 13.1895 45.3057 13.1661 45.4105 13.1661C45.556 13.1661 45.7002 13.2114 45.8221 13.3L46.6791 13.9233C46.8313 14.034 46.9273 14.1959 46.9493 14.3792C46.9713 14.5625 46.9165 14.7416 46.7947 14.8833Z" fill="#2A323D"/>
<path d="M48.7069 7.11719C47.6616 7.11719 46.8111 7.94195 46.8111 8.95563C46.8111 9.9693 47.6615 10.7941 48.7069 10.7941C49.7522 10.7941 50.6026 9.96922 50.6026 8.95555C50.6026 7.94195 49.7521 7.11719 48.7069 7.11719ZM48.7069 9.62211C48.3279 9.62211 48.0195 9.32305 48.0195 8.95555C48.0195 8.58805 48.3278 8.28898 48.7069 8.28898C49.0859 8.28898 49.3942 8.58805 49.3942 8.95555C49.3942 9.32305 49.0858 9.62211 48.7069 9.62211Z" fill="#2A323D"/>
<path d="M49.9941 22.4427C49.7097 22.1627 49.298 22.0301 48.8927 22.0878C48.6169 22.127 48.3371 22.1469 48.0611 22.1469C45.5096 22.1469 43.2711 20.5643 42.4906 18.2085C42.2772 17.5645 41.7307 17.088 41.0644 16.965C36.488 16.1201 33.1665 12.2247 33.1665 7.70264C33.1665 5.83529 33.7304 4.02873 34.7974 2.47842C35.0315 2.13834 35.0754 1.71146 34.9149 1.33646C34.7541 0.960762 34.4105 0.688965 33.9958 0.609356C31.9402 0.21459 29.8311 0.125762 27.7273 0.345527C23.5172 0.785137 19.5931 2.46912 16.3792 5.21568C16.1288 5.42959 16.1047 5.7999 16.3254 6.04264C16.546 6.28537 16.9278 6.30881 17.1781 6.09482C20.2037 3.50928 23.8962 1.92412 27.8566 1.51076C29.839 1.30373 31.8256 1.38732 33.7611 1.75904C33.7752 1.76178 33.7907 1.76709 33.7988 1.78584C33.8064 1.80357 33.8002 1.81662 33.7923 1.82803C32.5923 3.57162 31.958 5.60311 31.958 7.70271C31.958 12.7868 35.6928 17.1662 40.8383 18.1162C41.0698 18.159 41.2621 18.3317 41.3401 18.567C42.2817 21.4092 44.9827 23.3188 48.0611 23.3188C48.3957 23.3188 48.7345 23.2947 49.0683 23.2472C49.1128 23.2408 49.1355 23.2663 49.1365 23.2728C48.5541 26.7462 46.9716 29.9888 44.5602 32.6501C44.34 32.8933 44.3646 33.2635 44.6153 33.4771C44.7301 33.5748 44.8723 33.6229 45.014 33.6229C45.1818 33.6229 45.3486 33.5555 45.4681 33.4237C48.0294 30.5969 49.7103 27.1519 50.3292 23.461C50.3923 23.0857 50.2702 22.7146 49.9941 22.4427Z" fill="#2A323D"/>
<path d="M43.6417 34.4217C43.4214 34.1788 43.0395 34.1551 42.789 34.3689C39.2462 37.3914 34.6969 39.0559 29.979 39.0559C27.2595 39.0559 24.6294 38.5215 22.1615 37.4675C19.7772 36.4492 17.6573 34.9973 15.8607 33.1522C14.0669 31.3101 12.6961 29.179 11.7862 26.8179C10.8401 24.3626 10.44 21.7719 10.5968 19.1179C10.8413 14.9809 12.5496 10.9667 15.407 7.81458C15.6273 7.57154 15.6027 7.2013 15.3521 6.98771C15.1015 6.77404 14.7197 6.79779 14.4994 7.04091C11.4647 10.3886 9.65029 14.6537 9.3904 19.0509C9.22388 21.8683 9.64909 24.6195 10.6543 27.2281C11.621 29.7365 13.077 32.0005 14.9822 33.9568C16.8902 35.9163 19.1419 37.4583 21.6745 38.54C24.2968 39.6599 27.0908 40.2277 29.979 40.2277C34.9908 40.2277 39.8237 38.4594 43.5872 35.2487C43.8377 35.0349 43.8621 34.6647 43.6417 34.4217Z" fill="#2A323D"/>
</g>
<defs>
<clipPath id="clip0_1096_9791">
<rect x="9.35529" y="0.228027" width="41.2473" height="40" fill="white"/>
</clipPath>
</defs>
</svg>
