<svg width="26" height="27" viewBox="0 0 26 27" fill="none" xmlns="http://www.w3.org/2000/svg">
<path d="M13.1162 26.6244C20.1824 26.6244 25.9311 20.8757 25.9311 13.8095C25.9311 6.74331 20.1824 0.994629 13.1162 0.994629C6.05002 0.994629 0.301331 6.74331 0.301331 13.8095C0.301331 20.8757 6.05002 26.6244 13.1162 26.6244ZM24.0557 13.8095C24.0557 19.8416 19.1483 24.749 13.1162 24.749C11.948 24.749 10.8221 24.5642 9.7657 24.2235L16.4642 18.5076C16.7379 18.3121 16.9939 18.0939 17.2292 17.8549L17.2337 17.851L17.2333 17.8505C18.2564 16.8084 18.8889 15.3817 18.8889 13.8095C18.8889 12.312 18.3155 10.9461 17.3771 9.91915H23.3403C23.8019 11.1286 24.0557 12.4399 24.0557 13.8095ZM9.31312 14.6588C9.25211 14.3852 9.21885 14.1013 9.21885 13.8095C9.21885 11.6957 10.9107 9.97078 13.0112 9.9149V9.91928H13.342C15.3862 10.0365 17.0137 11.7364 17.0137 13.8096C17.0137 14.8437 16.6081 15.7841 15.9487 16.4825L15.3 17.0361C14.6766 17.4593 13.9248 17.707 13.1163 17.707C11.5304 17.707 10.1637 16.7543 9.55579 15.3917L9.56041 15.3902L9.31312 14.6588ZM13.1162 2.86997C17.0337 2.86997 20.4762 4.94036 22.4089 8.0438H13.393C13.3012 8.03943 13.209 8.0368 13.1162 8.0368C10.9529 8.0368 9.06495 9.23352 8.07639 10.9991L6.17166 5.36306C8.06201 3.80615 10.4818 2.86997 13.1162 2.86997ZM4.69102 6.83946L7.50829 15.1759C8.06664 17.4672 9.99537 19.226 12.3738 19.5329L7.84835 23.3945C4.47022 21.5304 2.17668 17.9329 2.17668 13.8095C2.17668 11.1631 3.12135 8.73343 4.69102 6.83946Z" fill="#FCFEFF"/>
</svg>
