<svg width="25" height="28" viewBox="0 0 25 28" fill="none" xmlns="http://www.w3.org/2000/svg">
<path d="M0.252502 12.5552H0.267129C0.421518 11.3334 0.70592 10.1637 1.11708 9.04276C1.52825 7.92184 2.08567 6.87088 2.78774 5.88663C3.48981 4.90237 4.30076 4.04989 5.22059 3.32756C6.14043 2.60523 7.22278 2.03583 8.46765 1.61935C9.71251 1.20287 11.0516 0.994629 12.4834 0.994629C14.7212 0.994629 16.725 1.50547 18.4981 2.52877C20.2711 3.55207 21.6931 5.02276 22.769 6.94247C23.7766 8.7548 24.2804 10.8974 24.2804 13.3702V16.1034H7.93622C7.94597 17.1787 8.20437 18.1126 8.71304 18.9032C9.22172 19.6939 9.88315 20.2877 10.6957 20.6846C11.5083 21.0816 12.4265 21.3582 13.4487 21.5127C14.471 21.6673 15.5013 21.6819 16.543 21.5566C17.5847 21.4314 18.5907 21.2052 19.5642 20.8799C20.5377 20.5545 21.3779 20.1461 22.0848 19.6516V25.1341C21.1942 25.6677 20.0826 26.1135 18.7516 26.4714C17.4206 26.8293 15.9076 27.0148 14.2126 27.0246C12.5175 27.0343 10.9883 26.7773 9.6215 26.2534C7.79158 25.5457 6.28344 24.3386 5.09708 22.6336C3.91072 20.9287 3.30779 19.1228 3.28829 17.2227C3.25903 14.8767 3.79696 12.8805 4.90044 11.2325C6.00392 9.5845 7.57869 8.28463 9.6215 7.33454C9.15671 7.91696 8.77967 8.52541 8.48877 9.15989C8.19787 9.79437 7.97522 10.5688 7.82083 11.4798H17.0452C17.1232 10.7331 17.0842 10.0547 16.9282 9.44459C16.7738 8.83452 16.5463 8.34158 16.2456 7.96902C15.945 7.59647 15.6037 7.27272 15.2218 7.00266C14.8399 6.73097 14.4498 6.5325 14.0517 6.40723C13.6551 6.28196 13.2911 6.18109 12.9628 6.10951C12.6345 6.03793 12.3631 5.99563 12.1486 5.98587L11.8301 5.96797C10.5235 6.01678 9.2656 6.23152 8.05973 6.61547C6.85387 6.99941 5.77314 7.50536 4.8143 8.13496C3.85546 8.76456 3.00226 9.44622 2.25794 10.1783C1.51362 10.9104 0.842433 11.7027 0.252502 12.5552Z" fill="#FCFEFF"/>
</svg>
