<svg width="56" height="17" viewBox="0 0 56 17" fill="none" xmlns="http://www.w3.org/2000/svg">
<rect y="1.64783" width="13.6823" height="2.6619" rx="1.33095" fill="#2A323D"/>
<rect y="6.80151" width="13.6823" height="2.6619" rx="1.33095" fill="#2A323D"/>
<rect y="11.9554" width="13.6823" height="2.6619" rx="1.33095" fill="#2A323D"/>
<path d="M22.6837 3.82H23.4437L25.6037 9C25.617 9.04667 25.6337 9.09 25.6537 9.13C25.6737 9.17 25.6903 9.21333 25.7037 9.26C25.717 9.21333 25.7337 9.17 25.7537 9.13C25.7737 9.08333 25.7903 9.03667 25.8037 8.99L27.9537 3.82H28.7037L29.8237 11H28.8037L28.0637 6.17L26.0537 11H25.3437L23.4437 6.47L23.3237 6.16C23.3103 6.21333 23.3003 6.26667 23.2937 6.32C23.287 6.37333 23.277 6.42667 23.2637 6.48L22.5737 11H21.5437L22.6837 3.82ZM31.3754 11V3.82H35.3854V4.84H32.4354V6.61H35.3854V7.62H32.4354V9.97H35.3854V11H31.3754ZM36.9489 11V3.82H37.7089L41.5889 8.92V3.82H42.6489V11H41.8889L38.0089 5.92V11H36.9489ZM44.6217 3.82H45.6817V8.66C45.6817 9.11333 45.795 9.47667 46.0217 9.75C46.2484 10.0233 46.5817 10.16 47.0217 10.16C47.275 10.16 47.485 10.12 47.6517 10.04C47.825 9.96 47.965 9.85 48.0717 9.71C48.1784 9.56333 48.255 9.39333 48.3017 9.2C48.3484 9.00667 48.3717 8.79667 48.3717 8.57V3.82H49.4317V8.57C49.4317 8.97 49.375 9.33 49.2617 9.65C49.155 9.97 48.9984 10.2433 48.7917 10.47C48.585 10.6967 48.3317 10.87 48.0317 10.99C47.7384 11.11 47.405 11.17 47.0317 11.17C46.645 11.17 46.3017 11.11 46.0017 10.99C45.7017 10.8633 45.4484 10.6867 45.2417 10.46C45.0417 10.2267 44.8884 9.94667 44.7817 9.62C44.675 9.28667 44.6217 8.91667 44.6217 8.51V3.82Z" fill="#2A323D"/>
</svg>
