<svg width="36" height="41" viewBox="0 0 36 41" fill="none" xmlns="http://www.w3.org/2000/svg">
<path d="M2.25782 2.03494H24.5568V12.9881H25.9505V0.746338H0.864136V30.3842H16.1947V29.0956H2.25782V2.03494Z" fill="#2A323D"/>
<path d="M34.5457 20.828C34.2632 20.6185 34.0257 20.3618 33.8454 20.0717C33.8002 19.7219 33.8277 19.3673 33.926 19.0273C34.1727 18.3414 34.1026 17.5921 33.7324 16.9559C33.1877 16.4315 32.433 16.138 31.6467 16.1452C31.2717 16.1276 30.9039 16.0445 30.5626 15.9005C30.3132 15.6472 30.1182 15.3527 29.9869 15.0325C29.7491 14.3325 29.2081 13.7549 28.4928 13.4371C27.732 13.3116 26.9488 13.4809 26.3271 13.9056C26.0005 14.1006 25.636 14.2356 25.2539 14.3026C24.8715 14.2347 24.5071 14.0987 24.1808 13.9024C23.5588 13.478 22.7755 13.3085 22.0144 13.434C21.2995 13.7521 20.7588 14.3297 20.521 15.0293C20.3896 15.3493 20.1943 15.6437 19.9453 15.8973C19.6037 16.0411 19.2358 16.1245 18.8609 16.1421C18.0742 16.1358 17.3195 16.4302 16.7754 16.9559C16.4049 17.5921 16.3348 18.3414 16.5815 19.0273C16.6802 19.3673 16.7077 19.7219 16.6625 20.0717C16.4832 20.3615 16.2467 20.6182 15.9656 20.828C15.311 21.2562 14.8789 21.9175 14.7734 22.6527C14.8778 23.3873 15.3086 24.0486 15.9622 24.4774C16.2433 24.6872 16.4794 24.9439 16.6591 25.2337C16.704 25.5835 16.6768 25.9381 16.5781 26.2782C16.3314 26.964 16.4015 27.7134 16.772 28.3495C17.3161 28.8752 18.0708 29.1696 18.8575 29.1633C19.2324 29.181 19.6002 29.2643 19.9419 29.4081C20.1273 29.5761 20.275 29.7765 20.376 29.9977V40.9574L25.2539 36.4473L30.1319 40.9574V29.9977C30.2315 29.7759 30.3779 29.5745 30.5626 29.4056C30.9039 29.2615 31.2717 29.1784 31.6467 29.1608C32.4337 29.1671 33.1884 28.8727 33.7324 28.347C34.1026 27.7108 34.1727 26.9611 33.926 26.2756C33.8277 25.9352 33.8002 25.581 33.8454 25.2312C34.0257 24.9408 34.2632 24.6844 34.5457 24.4749C35.1983 24.0464 35.629 23.3864 35.7345 22.6527C35.6297 21.9181 35.1989 21.2568 34.5457 20.828ZM25.2539 34.6276L21.7697 37.8491V31.7733C21.8483 31.8123 21.9303 31.845 22.015 31.8714C22.1739 31.9189 22.34 31.9428 22.5071 31.9422C23.1032 31.89 23.6772 31.705 24.1794 31.403C24.5061 31.2067 24.8712 31.0708 25.2539 31.0028C25.636 31.0708 26.0005 31.2067 26.3271 31.403C26.9491 31.8274 27.7324 31.9966 28.4935 31.8714C28.5779 31.845 28.6596 31.8123 28.7382 31.7733V37.8491L25.2539 34.6276ZM33.5868 23.5459C33.1213 23.8888 32.7545 24.333 32.5198 24.8389C32.3833 25.39 32.3952 25.9642 32.5548 26.51C32.6307 26.8967 32.7352 27.4302 32.6055 27.5944C32.4759 27.7587 31.8886 27.836 31.4612 27.8889C30.8542 27.9156 30.2639 28.0805 29.7423 28.369C29.2894 28.7361 28.9413 29.2008 28.729 29.7221C28.5313 30.104 28.2853 30.5803 28.0634 30.6467C27.8651 30.7027 27.3577 30.4532 26.9869 30.2695C26.4676 29.9552 25.8722 29.7645 25.2539 29.7142C24.6357 29.7642 24.0402 29.9546 23.5207 30.2682C23.1495 30.4526 22.6415 30.7052 22.4448 30.6451C22.2219 30.5809 21.9759 30.1027 21.7786 29.7208C21.5659 29.1995 21.2178 28.7349 20.7649 28.3677C20.2437 28.0792 19.6533 27.9141 19.0463 27.8876C18.6193 27.8348 18.0354 27.7627 17.902 27.5932C17.769 27.4236 17.8772 26.8973 17.9531 26.5088C18.1126 25.9629 18.1246 25.3888 17.9878 24.8376C17.753 24.3317 17.3865 23.8875 16.9211 23.5443C16.5859 23.2492 16.1671 22.8821 16.1671 22.654C16.1671 22.4259 16.5852 22.0587 16.9211 21.7636C17.3865 21.4204 17.753 20.9762 17.9878 20.4703C18.1246 19.9192 18.1126 19.3453 17.9531 18.7992C17.8772 18.4125 17.7727 17.879 17.902 17.7148C18.0317 17.5505 18.6193 17.4731 19.0463 17.4203C19.6533 17.3935 20.244 17.2287 20.7656 16.9402C21.2182 16.5731 21.5662 16.1084 21.7786 15.5874C21.9766 15.2052 22.2226 14.7292 22.4441 14.6628C22.4669 14.6565 22.4904 14.6537 22.5139 14.6537C22.8715 14.727 23.2124 14.8579 23.5207 15.0403C24.0406 15.3531 24.636 15.5421 25.2539 15.5912C25.8722 15.5412 26.4673 15.3509 26.9869 15.0372C27.3577 14.8528 27.8623 14.5964 28.0628 14.6603C28.286 14.7245 28.532 15.2033 28.729 15.5846C28.9416 16.1059 29.2901 16.5706 29.7429 16.9377C30.2642 17.2262 30.8546 17.3913 31.4612 17.4178C31.8886 17.4706 32.4725 17.5427 32.6055 17.7122C32.7386 17.8818 32.6307 18.4081 32.5548 18.7967C32.3952 19.3425 32.3833 19.9166 32.5198 20.4678C32.7545 20.9737 33.1213 21.4179 33.5868 21.7611C33.922 22.0562 34.3408 22.4234 34.3408 22.6514C34.3408 22.8795 33.922 23.2479 33.5868 23.543V23.5459Z" fill="#6AFFFF"/>
<path d="M8.52966 4.6123H18.2855V5.90091H8.52966V4.6123Z" fill="#2A323D"/>
<path d="M3.65149 7.8335H23.1631V9.1221H3.65149V7.8335Z" fill="#2A323D"/>
<path d="M3.65149 11.0552H23.1631V12.3437H3.65149V11.0552Z" fill="#2A323D"/>
<path d="M3.65149 14.2769H17.5883V15.5655H3.65149V14.2769Z" fill="#2A323D"/>
<path d="M3.65149 17.498H15.4978V18.7867H3.65149V17.498Z" fill="#2A323D"/>
<path d="M3.65149 20.72H13.4073V22.0086H3.65149V20.72Z" fill="#2A323D"/>
<path d="M3.65149 23.9417H14.801V25.2303H3.65149V23.9417Z" fill="#2A323D"/>
<path d="M25.254 16.2097C21.4054 16.2097 18.2856 19.0943 18.2856 22.6528C18.2856 26.2112 21.4054 29.0958 25.254 29.0958C29.1026 29.0958 32.2224 26.2112 32.2224 22.6528C32.218 19.0959 29.1006 16.2135 25.254 16.2097ZM25.254 27.8072C22.175 27.8072 19.6793 25.4996 19.6793 22.6528C19.6793 19.8059 22.175 17.4983 25.254 17.4983C28.3326 17.4983 30.8287 19.8059 30.8287 22.6528C30.8253 25.498 28.3313 27.8041 25.254 27.8072Z" fill="#6AFFFF"/>
<path d="M25.2539 19.0234L26.0071 21.5312H28.4445L26.4726 23.0811L27.2258 25.5889L25.2539 24.039L23.282 25.5889L24.0352 23.0811L22.0632 21.5312H24.5007L25.2539 19.0234Z" fill="#6AFFFF"/>
</svg>
