<svg width="23" height="26" viewBox="0 0 23 26" fill="none" xmlns="http://www.w3.org/2000/svg">
<path d="M21.5164 20.8758C20.7539 20.5636 20.4278 20.1492 20.4593 19.5309C20.4918 18.8092 20.0824 18.2806 19.8879 18.0717C20.0054 17.623 20.3487 16.0707 19.8883 14.7223C19.3935 13.2791 17.8829 11.0749 16.3243 8.90817C15.6862 8.01837 15.656 7.05116 15.6212 5.93119C15.5878 4.86297 15.5501 3.65213 14.9544 2.30609C14.3067 0.840445 13.007 0 11.3884 0C10.4256 0 9.43722 0.30092 8.67665 0.825527C7.1192 1.9004 7.32507 4.24391 7.46129 5.79463C7.47996 6.00698 7.49752 6.20756 7.50775 6.37882C7.59846 7.89757 7.51594 8.69804 7.40802 8.94133C7.3382 9.10032 6.99449 9.5528 6.63074 10.0319C6.25455 10.5273 5.82806 11.0889 5.47846 11.6123C5.06135 12.242 4.72463 13.2045 4.39899 14.1353C4.16072 14.8164 3.93567 15.4598 3.71659 15.8442C3.30135 16.5838 3.40467 17.2735 3.49094 17.5922C3.33375 17.7014 3.10665 17.9164 2.91493 18.3217C2.68323 18.8161 2.2131 19.0818 1.23549 19.2698C0.786241 19.3617 0.476455 19.5506 0.314487 19.8312C0.0787804 20.2396 0.207162 20.7528 0.32429 21.1035C0.497341 21.6191 0.389504 21.9454 0.193437 22.5379C0.148256 22.6746 0.0970232 22.8294 0.0451081 23.0002C-0.0366433 23.2696 -0.00714794 23.5146 0.132571 23.7284C0.501773 24.2928 1.57912 24.4918 2.68817 24.6228C3.35037 24.7014 4.07513 24.9662 4.77612 25.2225C5.46295 25.4734 6.17314 25.733 6.81871 25.8118C6.91683 25.8241 7.01401 25.8304 7.10769 25.8304C8.0824 25.8304 8.52278 25.1836 8.66242 24.9179C9.01252 24.8464 10.22 24.6176 11.4646 24.587C12.7071 24.5515 13.9093 24.7968 14.2499 24.8731C14.357 25.0781 14.6392 25.5461 15.0891 25.7873C15.3364 25.9225 15.6806 26 16.0331 26C16.0332 26 16.0331 26 16.0332 26C16.4096 26 17.1258 25.911 17.6926 25.3147C18.2579 24.7156 19.6705 23.9508 20.7019 23.3923C20.9321 23.2677 21.1474 23.1511 21.3363 23.0458C21.9157 22.7246 22.2319 22.2656 22.2037 21.7866C22.1801 21.3888 21.9168 21.0398 21.5164 20.8758ZM8.68936 20.7605C8.61724 20.2524 7.96365 19.7485 7.20675 19.1651C6.58786 18.688 5.88637 18.1473 5.69311 17.6893C5.29373 16.7446 5.60855 15.0835 6.15745 14.2281C6.4287 13.7999 6.65026 13.1504 6.86457 12.5223C7.09593 11.8441 7.33522 11.1428 7.6028 10.8358C8.02656 10.3566 8.41819 9.42408 8.48758 8.68917C8.8844 9.06801 9.49996 9.54871 10.0686 9.54871C10.1562 9.54871 10.2412 9.53729 10.3224 9.51436C10.7115 9.402 11.2837 9.07133 11.8372 8.75166C12.3143 8.47597 12.9027 8.13601 13.124 8.10506C13.5036 8.65013 15.7094 13.5314 15.9348 15.099C16.1131 16.3394 15.9247 17.3647 15.83 17.7663C15.7538 17.7559 15.6629 17.7475 15.5675 17.7475C14.9531 17.7475 14.7904 18.0828 14.7481 18.2831C14.6391 18.8033 14.6276 20.4669 14.6264 20.8407C14.4043 21.123 13.2808 22.4521 11.6679 22.6911C11.0109 22.7866 10.3974 22.835 9.84444 22.835C9.37184 22.835 9.07024 22.7985 8.94501 22.7795L8.13449 21.8521C8.45408 21.6943 8.77358 21.3613 8.68936 20.7605ZM9.71785 5.46848C9.69254 5.47939 9.66764 5.49107 9.64318 5.50351C9.64071 5.44861 9.63499 5.39295 9.62621 5.33711C9.53773 4.82776 9.19998 4.45805 8.82328 4.45805C8.7954 4.45805 8.76736 4.46018 8.73658 4.46487C8.51247 4.50221 8.33669 4.67057 8.24036 4.90926C8.32484 4.3855 8.62158 3.99772 8.97365 3.99772C9.3871 3.99772 9.73635 4.55489 9.73635 5.21436C9.73635 5.29747 9.7303 5.38016 9.71785 5.46848ZM12.9305 5.86121C12.9683 5.74067 12.9888 5.61024 12.9888 5.47487C12.9888 4.87695 12.6094 4.40852 12.1251 4.40852C11.6518 4.40852 11.2668 4.88684 11.2668 5.47487C11.2668 5.51493 11.2687 5.55509 11.2725 5.59515C11.2474 5.58552 11.223 5.57614 11.1991 5.56711C11.1446 5.40215 11.1171 5.23004 11.1171 5.05435C11.1171 4.33939 11.574 3.75766 12.1358 3.75766C12.6975 3.75766 13.1545 4.33939 13.1545 5.05435C13.1545 5.35177 13.0724 5.63564 12.9305 5.86121ZM12.5162 7.25277C12.5081 7.28891 12.4909 7.30494 12.3005 7.404C12.2043 7.45404 12.0846 7.51635 11.9349 7.60756L11.8348 7.66818C11.4326 7.91198 10.4909 8.48305 10.2352 8.51655C10.0616 8.53991 9.95416 8.47256 9.71265 8.30846C9.65818 8.27138 9.60021 8.232 9.53841 8.19236C9.10306 7.90669 8.82302 7.59205 8.7914 7.46904C8.93333 7.35933 9.28514 7.08475 9.46527 6.92218C9.83089 6.58222 10.1988 6.35376 10.3809 6.35376C10.3905 6.35376 10.3992 6.35444 10.4083 6.35615C10.6222 6.39391 11.15 6.60456 11.5355 6.75834C11.7136 6.82944 11.8675 6.89081 11.9758 6.92969C12.3168 7.04681 12.4947 7.19668 12.5162 7.25277ZM15.5806 23.1402C15.773 22.2723 15.9946 21.0916 15.9587 20.3956C15.9505 20.2374 15.9365 20.0653 15.9229 19.8989C15.8976 19.5878 15.86 19.1253 15.8988 18.9881C15.9065 18.9846 15.915 18.9815 15.9245 18.9788C15.9261 19.3768 16.0125 20.1705 16.6473 20.4473C16.8364 20.5298 17.0526 20.5716 17.2898 20.5716C17.9256 20.5716 18.6311 20.2597 18.9201 19.9707C19.0903 19.8005 19.2334 19.5924 19.3337 19.4275C19.3556 19.4917 19.369 19.5756 19.362 19.6837C19.3242 20.2706 19.6094 21.0492 20.1523 21.3362L20.2313 21.3777C20.4246 21.4791 20.9382 21.7488 20.9464 21.8766C20.9463 21.8767 20.9421 21.8917 20.9134 21.9183C20.7848 22.0359 20.3321 22.2671 19.8942 22.4907C19.1176 22.8872 18.2372 23.3367 17.8418 23.7526C17.2852 24.3384 16.6556 24.7319 16.2754 24.7319C16.2296 24.7319 16.1879 24.7261 16.1508 24.7143C15.7379 24.5856 15.398 23.9898 15.5806 23.1402ZM1.50547 20.926C1.46335 20.729 1.43011 20.5734 1.46583 20.4227C1.49174 20.311 2.04303 20.1913 2.27848 20.1402C2.60949 20.0684 2.95184 19.9941 3.1757 19.8582C3.47841 19.6749 3.64234 19.3367 3.78692 19.0383C3.8916 18.8226 3.99969 18.5995 4.12833 18.5263C4.13557 18.522 4.14666 18.5171 4.1678 18.5171C4.40879 18.5171 4.91447 19.0237 5.20584 19.4771C5.27975 19.5914 5.41666 19.8205 5.57505 20.0857C6.04876 20.8783 6.6974 21.9639 7.03617 22.3278C7.34144 22.6548 7.83561 23.2837 7.71405 23.8231C7.62505 24.2415 7.15125 24.5818 7.0395 24.6571C6.99892 24.6663 6.94871 24.671 6.88963 24.671C6.24125 24.671 4.95778 24.1316 4.26822 23.8417L4.16618 23.7989C3.78112 23.6374 3.15251 23.5357 2.54462 23.4373C2.06093 23.359 1.39857 23.2518 1.28877 23.155C1.19977 23.0552 1.303 22.7306 1.39405 22.4443C1.4596 22.2385 1.52729 22.0257 1.56437 21.803C1.61697 21.4477 1.55508 21.1584 1.50547 20.926Z" fill="#F9F9F9"/>
</svg>
