<svg width="105" height="27" viewBox="0 0 105 27" fill="none" xmlns="http://www.w3.org/2000/svg">
<path d="M2.24732 20.2884L2.24774 20.2887C3.1299 20.9104 4.30313 21.254 5.66136 21.254C6.98508 21.254 8.17911 20.8616 9.03195 20.1831L9.03237 20.1828C9.89573 19.4975 10.3501 18.5782 10.3501 17.5905C10.3501 16.4441 9.9499 15.6818 9.23146 15.0924C8.47965 14.4756 7.35565 14.029 5.87083 13.6144L5.86954 13.614C4.38941 13.1965 3.30341 12.8209 2.59531 12.2855C2.22681 12.0068 1.95054 11.6788 1.77158 11.2757C1.59488 10.8777 1.52651 10.4369 1.52651 9.95115C1.52651 8.68249 2.29244 7.91243 2.88289 7.50951L2.884 7.50875L2.884 7.50875C3.6518 6.98781 4.66279 6.70127 5.66136 6.70127C6.73405 6.70127 7.68816 7.04583 8.42376 7.68701C9.13639 8.30818 9.61778 9.18466 9.81831 10.2303H10.0755C9.91402 9.17525 9.46815 8.29023 8.80305 7.64792C8.03653 6.90924 6.97008 6.5 5.68363 6.5C4.48663 6.5 3.37429 6.86195 2.54825 7.49452L2.54808 7.49465C1.68076 8.15822 1.22994 9.04737 1.22994 9.99457C1.22994 11.0725 1.56774 11.8049 2.27773 12.3831C2.92117 12.9058 3.91562 13.3495 5.70798 13.8449L5.70902 13.8452C7.31429 14.2927 8.33541 14.7048 9.00076 15.2397L2.24732 20.2884ZM2.24732 20.2884C1.30521 19.6259 0.722056 18.6507 0.557742 17.4392M2.24732 20.2884L0.557742 17.4392M0.557742 17.4392H0.811038C0.998074 18.7588 1.71807 19.6719 2.63903 20.2446C3.56765 20.822 4.69046 21.0503 5.68116 21.0503C8.05882 21.0503 10.0511 19.7206 10.0511 17.634C10.0511 17.1301 9.98053 16.6789 9.80593 16.2731C9.62932 15.8626 9.35864 15.5274 9.00083 15.2398L0.557742 17.4392ZM42.2746 8.99171L41.8083 7.96558L41.3605 8.99991L37.8109 17.1992L37.737 16.9227L41.8287 7.51443L48.1652 21.5H47.9583L42.2746 8.99171ZM74.5283 6.79187H83.2847V6.97384H75.2828H74.7828V7.47384V13.2872V13.7872H75.2828H82.8567V13.9692H75.2828H74.7828V14.4692V20.2825V20.7825H75.2828H83.5V20.9645H74.5283V6.79187ZM58.6029 15.0312V20.9621H58.3508V6.79187H61.5178C62.1488 6.79187 62.8809 6.80405 63.6238 6.89421C64.7076 7.03183 65.5268 7.39272 66.1012 7.934C66.7522 8.54826 67.1048 9.41 67.1048 10.5566C67.1048 11.739 66.7515 12.6483 66.0984 13.3098C65.5161 13.8981 64.6699 14.2952 63.6265 14.4264C62.8802 14.5167 62.1474 14.5312 61.5178 14.5312H59.1029H58.6029V15.0312ZM63.5372 14.2262H63.5388L63.5678 14.2228C64.2602 14.1419 65.0754 13.9156 65.7229 13.3414C66.3878 12.7517 66.8132 11.8512 66.8132 10.5566C66.8132 9.59147 66.5511 8.76894 65.9724 8.15744C65.398 7.55053 64.5715 7.21494 63.5677 7.09782L63.5388 7.09445H63.5373C62.8293 7.00973 62.232 6.99314 61.5203 6.99314H59.1053H58.6053V7.49314V13.8275V14.3275H59.1053H61.5203C62.2322 14.3275 62.827 14.3109 63.5372 14.2262ZM26.7209 14.6139V14.1139H26.2209H17.4938H16.9938V14.6139V20.9621H16.7393V6.79187H16.9938V13.4102V13.9102H17.4938H26.2185H26.7185V13.4102V6.79187H26.973V20.9621H26.7209V14.6139Z" fill="#2A323D" stroke="#2A323D"/>
<path d="M47.21 15.7219C47.5094 16.3345 48.325 16.4423 48.7687 15.9279L52.3167 11.8145C53.5658 10.3664 53.0342 8.0989 51.2767 7.37848L33.785 0.208372C31.7057 -0.643958 29.5496 1.2524 30.082 3.46534L35.23 24.866C35.7617 27.0765 38.5311 27.7504 39.9907 26.0243L45.1004 19.9817C45.3417 19.6964 45.3971 19.2944 45.2424 18.9527C44.9537 18.3152 44.112 18.1962 43.6629 18.7294L42.0132 20.6881C41.3385 21.4893 40.2559 21.7998 39.2685 21.4755L39.0436 21.4016C38.1453 21.1066 37.4586 20.3644 37.2242 19.4352L33.7526 5.67263C33.5747 4.96732 33.7783 4.21906 34.2877 3.70685C34.8568 3.13446 35.7053 2.95829 36.4499 3.25793L50.0325 8.72422C50.3741 8.86169 50.6467 9.13318 50.7889 9.47739C50.9908 9.96608 50.9011 10.5289 50.5578 10.9279L47.345 14.6617C47.0929 14.9547 47.0396 15.3733 47.21 15.7219Z" fill="#6AFFFF"/>
<rect opacity="0.5" x="103" width="2" height="26" rx="1" fill="#C0C0C0"/>
</svg>
